<svg xmlns="http://www.w3.org/2000/svg" viewBox="0 0 1920 375.2"><defs><style>.cls-1{fill:#30475e;}.cls-2{fill:#59697c;}.cls-3{fill:#828d9a;}.cls-4{fill:#adb3ba;}</style></defs><g id="Ebene_2" data-name="Ebene 2"><g id="Ebene_1-2" data-name="Ebene 1"><path class="cls-1" d="M0,0,64,12.6c64,12.8,192,38,320,44.4s256-6.4,384-17,256-19.4,384-11.4,256,32.8,384,35C1664,66,1792,46,1856,36l64-10V210H0Z"/><path class="cls-2" d="M0,50l64,8.4c64,8.2,192,25,320,28s256-7.8,384-6.8,256,13.8,384,20.8,256,8.2,384,8.6,256-.4,320-.6l64-.4V210H0Z"/><path class="cls-3" d="M0,152l64,.6c64,.8,192,2,320-2.2C512,146,640,136,768,127.6c128-8.2,256-15,384-15.6s256,4.6,384,12.4c128,7.6,256,17.6,320,22.6l64,5v58H0Z"/><path class="cls-4" d="M0,176l64,2.6c64,2.8,192,8,320,4.8C512,180,640,168,768,168s256,12,384,10,256-18,384-20.6c128-2.8,256,8,320,13.2l64,5.4v34H0Z"/><path class="cls-1" d="M0,334.17l64,6c64,6,192,18,320,18.4,128,.2,256-11,384-6.8,128,4.4,256,24.4,384,23.4s256-23,384-26.6c128-3.8,256,11,320,18.2l64,7.4v-164H0Z"/><path class="cls-2" d="M0,304.17l64,2.4c64,2.2,192,7,320,14.2,128,7.4,256,17.4,384,15,128-2.2,256-17,384-15.6s256,18.6,384,20.4c128,1.6,256-12.4,320-19.4l64-7v-104H0Z"/><path class="cls-3" d="M0,282.17l64-4.4c64-4.2,192-13,320-10s256,17.8,384,26.8,256,12.2,384,5.2,256-24.2,384-31c128-6.6,256-2.6,320-.6l64,2v-60H0Z"/><path class="cls-4" d="M0,270.17l64-5.4c64-5.2,192-16,320-22.6s256-9.4,384-10.6c128-1.4,256-1.4,384,3.6s256,15,384,16,256-7,320-11l64-4v-28H0Z"/></g></g></svg>