<svg xmlns="http://www.w3.org/2000/svg" viewBox="0 0 283.81 570.05"><defs><style>.cls-1{fill:#30475e;}</style></defs><g id="Ebene_2" data-name="Ebene 2"><g id="Ebene_1-2" data-name="Ebene 1"><path class="cls-1" d="M80.13,450.52a7.63,7.63,0,1,0-3.68,14.81l99.14,24.58a7.63,7.63,0,1,0,3.68-14.81Z"/><path class="cls-1" d="M276.39,28.92c-.28-.86-7.14-21.13-32.33-27.38s-40.73,8.47-41.38,9.1a7.64,7.64,0,0,0-2.09,3.64l-1,4-2.47-.61a7.63,7.63,0,1,0-3.67,14.81l2.47.61-2.77,11.15-2.46-.61A7.63,7.63,0,0,0,187,58.46l2.46.61-2.76,11.16-2.47-.62a7.63,7.63,0,0,0-3.67,14.82l4.53,1.12,2,25.44L157.57,221.14c-21.11-2.43-59.32-1.42-79.41,32.34C64.75,276,67.59,292.57,70.1,307.24c2,11.69,3.72,21.78-1.81,35.22-2.58,6.24-10.14,13.13-18.89,21.11C27.54,383.49-2.4,410.78.15,465.59c3.05,65.3,71.31,89.24,100.56,96.5l8.28,2c22.22,5.51,68.93,13.05,104.63-8.46a84.19,84.19,0,0,0,29.32-29.9c27.86-47.27,14.14-85.38,4.12-113.2-4-11.14-7.47-20.76-6.83-27.48,1.38-14.47,7.62-22.59,14.84-32,9.07-11.8,19.35-25.18,18-51.3-2-39.24-35.31-58-55.12-65.69l25.32-111.18,13.68-21.58,4.52,1.12a7.63,7.63,0,1,0,3.68-14.81l-2.47-.61,2.76-11.15,2.47.61a7.69,7.69,0,0,0,5.78-.87,7.64,7.64,0,0,0-2.11-14l-2.46-.61,2.76-11.15,2.47.61A7.63,7.63,0,0,0,278,37.74l-2.47-.61,1-4A7.65,7.65,0,0,0,276.39,28.92ZM257.82,302.6c1.07,20.5-6.3,30.1-14.84,41.21-7.57,9.84-16.15,21-17.94,39.84-1,10.13,3,21.24,7.66,34.1,9.5,26.37,21.31,59.18-2.91,100.28-28,47.52-91.23,37.72-117.11,31.3l-8.33-2.05C78.46,540.84,18,519.93,15.4,464.88c-2.22-47.65,23.56-71.15,44.28-90,10.11-9.21,18.83-17.17,22.71-26.58,7.21-17.5,4.84-31.36,2.75-43.6-2.36-13.81-4.4-25.74,6.13-43.38,15-25.25,44.4-26.92,62.3-25.22l-17.78,66.3c-.64.34-1.27.7-1.9,1.08A48.52,48.52,0,1,0,200.49,320c-.39-.66-.8-1.3-1.22-1.94l15.23-66.9C231.12,258,256.32,273.23,257.82,302.6Zm-112.31,12A33.07,33.07,0,0,1,185,324.34l.14.18A33.28,33.28,0,1,1,126.6,337a33.11,33.11,0,0,1,15.17-20.52,34,34,0,0,1,3.53-1.85Zm41.06-9.47a48.44,48.44,0,0,0-33.49-8.3l47.18-175.9L227,127.56Zm74.55-273.2-2.22,8.93v0L252.47,66.8v0l-6.14,24.76-13.69,21.62L202,105.62,200,80.1l14.79-59.67c3.43-2.42,12.43-7.35,25.6-4.08S259.24,28.22,261.12,31.91Z"/></g></g></svg>