<svg xmlns="http://www.w3.org/2000/svg" viewBox="0 0 1920 261.34"><defs><style>.cls-1{fill:#30475e;}.cls-2{fill:#59697c;}.cls-3{fill:#828d9a;}.cls-4{fill:#ddd;}</style></defs><g id="Ebene_2" data-name="Ebene 2"><g id="Ebene_1-2" data-name="Ebene 1"><path class="cls-1" d="M0,52.27l45.87,2.56c45.86,2.35,137.6,7.47,228.9-6.83C366.29,33.71,457.17.43,548.69,0,640-.42,731.73,32.43,823,36.7,914.56,41,1005.44,16.64,1097,18.14c91.31,1.49,183,28.37,274.35,32.64,91.52,4.26,182.4-14.08,273.92-23.47,91.3-9.17,183-9.17,228.9-9.17H1920v243.2H0Z"/><path class="cls-2" d="M0,103.47,45.87,89.6A678.7,678.7,0,0,1,274,61.92c91.52,4,183.17,29.39,274.69,37.92C640,108.38,731.73,90,823,74c91.52-16,182.4-29.65,273.92-22.19,91.31,7.47,183,36.06,274.35,35.63,91.52-.43,182.4-29.44,273.92-43.09,91.3-13.44,183-11.31,228.9-10.24L1920,35.2V261.34H0Z"/><path class="cls-3" d="M0,126.56l45.87,7c45.86,7.2,137.6,21.24,228.9,22,91.52.56,182.4-12.37,273.92-20.67,91.31-8.31,183-12,274.35-12,91.52,0,181.44,21.43,273,21.06,91.31-.18,152-22,275.31-22,91.52.37,182.4,5.17,273.92,6.46,91.3,1.3,183-1.29,228.9-2.4l45.87-1.29V261.34H0Z"/><path class="cls-4" d="M0,154.67l45.87,4.27c45.86,4.26,137.6,12.8,228.9,22.82,91.52,9.82,182.4,21.34,273.92,24.11,91.31,2.77,183-2.77,274.35-2.13,91.52.64,182.4,7.89,273.92,3.62,91.31-4.26,183-20.05,274.35-27.52,91.52-7.46,182.4-6.61,273.92-3.84,91.3,2.78,183,7.9,228.9,10.24L1920,188.8v72.54H0Z"/></g></g></svg>