<svg xmlns="http://www.w3.org/2000/svg" viewBox="0 0 1920 255.19"><defs><style>.cls-1{fill:#30475e;}.cls-2{fill:#59697c;}.cls-3{fill:#828d9a;}.cls-4{fill:#adb3ba;}</style></defs><g id="Ebene_2" data-name="Ebene 2"><g id="Ebene_1-2" data-name="Ebene 1"><path class="cls-1" d="M0,13.45l45.6-2.4c45.8-2.2,137-7,228.4-9.2q137.1-3.6,274-.4c91.4,2,182.6,6,274.4,12,91.6,6,183.6,14,275.2,17.4,91.8,3.2,183,2,274.4-1.4s182.6-8.6,274-13.4c91.4-4.6,182.6-8.6,228.4-10.6l45.6-2v132H0Z"/><path class="cls-2" d="M0,59.45l45.6-5c45.8-5,137-15,228.4-18.4,91.4-3.2,182.6,0,274,6s182.6,14.8,274.4,19c91.6,4.4,183.6,4.4,275.2-1.2,91.8-5.8,183-17,274.4-20s182.6,2.2,274,1c91.4-1.4,182.6-9.4,228.4-13.4l45.6-4v112H0Z"/><path class="cls-3" d="M0,59.45l45.6-1.4c45.8-1.2,137-4,228.4-3.6s182.6,3.6,274,9,182.6,12.6,274.4,16c91.6,3.4,183.6,2.6,275.2.4,91.8-2.4,183-6.4,274.4-11.4s182.6-11,274-9.6c91.4,1.2,182.6,10,228.4,14.2l45.6,4.4v58H0Z"/><path class="cls-4" d="M0,103.45l45.6.6c45.8.8,137,2,228.4-1.2,91.4-3.4,182.6-11.4,274-14.4s182.6-1,274.4,1.4c91.6,2.2,183.6,5,275.2,7,91.8,2,183,3.2,274.4,4.6s182.6,2.6,274-1.4,182.6-13.2,228.4-18l45.6-4.6v58H0Z"/><path class="cls-1" d="M0,228l45.6,2.6c45.8,2.8,137,8,228.4,6.8,91.4-1.4,182.6-9.4,274-6.4s182.6,17,274.4,22c91.6,5,183.6,1,275.2-6,91.8-7,183-17,274.4-20.6,91.4-3.8,182.6-1,274,4s182.6,12.2,228.4,16L1920,250V132H0Z"/><path class="cls-2" d="M0,226l45.6.6c45.8.8,137,2,228.4-2.6s182.6-15.4,274-20,182.6-3.4,274.4-2.4c91.6,1,183.6,1.8,275.2.4,91.8-1.4,183-4.6,274.4-6.4,91.4-1.6,182.6-1.6,274,6.8,91.4,8.2,182.6,25,228.4,33.2L1920,244V132H0Z"/><path class="cls-3" d="M0,212l45.6-1c45.8-1,137-3,228.4-6.6,91.4-3.8,182.6-9,274-11.4s182.6-1.6,274.4,2.4c91.6,4,183.6,11.2,275.2,15,91.8,3.6,183,3.6,274.4-.4s182.6-12,274-17,182.6-7,228.4-8l45.6-1V132H0Z"/><path class="cls-4" d="M0,164l45.6-1.6c45.8-1.8,137-5,228.4-5.4s182.6,2.4,274,6.4,182.6,9.2,274.4,11.2c91.6,2,183.6.8,275.2-4.2,91.8-5,183-13.8,274.4-13.4s182.6,9.6,274,15,182.6,6.6,228.4,7.4l45.6.6V132H0Z"/></g></g></svg>