<svg id="visual" viewBox="0 0 960 300" width="960" height="300" xmlns="http://www.w3.org/2000/svg" xmlns:xlink="http://www.w3.org/1999/xlink" version="1.1"><rect x="0" y="0" width="960" height="300" fill="#dddddd"></rect><path d="M0 191L22.8 194.3C45.7 197.7 91.3 204.3 137 203.8C182.7 203.3 228.3 195.7 274 196.5C319.7 197.3 365.3 206.7 411.2 211.3C457 216 503 216 548.8 215.8C594.7 215.7 640.3 215.3 686 209.7C731.7 204 777.3 193 823 187.2C868.7 181.3 914.3 180.7 937.2 180.3L960 180L960 301L937.2 301C914.3 301 868.7 301 823 301C777.3 301 731.7 301 686 301C640.3 301 594.7 301 548.8 301C503 301 457 301 411.2 301C365.3 301 319.7 301 274 301C228.3 301 182.7 301 137 301C91.3 301 45.7 301 22.8 301L0 301Z" fill="#30475e"></path><path d="M0 220L22.8 221C45.7 222 91.3 224 137 221.3C182.7 218.7 228.3 211.3 274 207.2C319.7 203 365.3 202 411.2 205.3C457 208.7 503 216.3 548.8 221.2C594.7 226 640.3 228 686 223.8C731.7 219.7 777.3 209.3 823 208.7C868.7 208 914.3 217 937.2 221.5L960 226L960 301L937.2 301C914.3 301 868.7 301 823 301C777.3 301 731.7 301 686 301C640.3 301 594.7 301 548.8 301C503 301 457 301 411.2 301C365.3 301 319.7 301 274 301C228.3 301 182.7 301 137 301C91.3 301 45.7 301 22.8 301L0 301Z" fill="#5a697c"></path><path d="M0 228L22.8 230.7C45.7 233.3 91.3 238.7 137 242C182.7 245.3 228.3 246.7 274 243.8C319.7 241 365.3 234 411.2 234.5C457 235 503 243 548.8 241.8C594.7 240.7 640.3 230.3 686 226.8C731.7 223.3 777.3 226.7 823 231.5C868.7 236.3 914.3 242.7 937.2 245.8L960 249L960 301L937.2 301C914.3 301 868.7 301 823 301C777.3 301 731.7 301 686 301C640.3 301 594.7 301 548.8 301C503 301 457 301 411.2 301C365.3 301 319.7 301 274 301C228.3 301 182.7 301 137 301C91.3 301 45.7 301 22.8 301L0 301Z" fill="#848e9b"></path><path d="M0 269L22.8 268C45.7 267 91.3 265 137 260.8C182.7 256.7 228.3 250.3 274 247.2C319.7 244 365.3 244 411.2 246.3C457 248.7 503 253.3 548.8 253.8C594.7 254.3 640.3 250.7 686 252.3C731.7 254 777.3 261 823 260.8C868.7 260.7 914.3 253.3 937.2 249.7L960 246L960 301L937.2 301C914.3 301 868.7 301 823 301C777.3 301 731.7 301 686 301C640.3 301 594.7 301 548.8 301C503 301 457 301 411.2 301C365.3 301 319.7 301 274 301C228.3 301 182.7 301 137 301C91.3 301 45.7 301 22.8 301L0 301Z" fill="#b0b5bb"></path><path d="M0 278L22.8 278.3C45.7 278.7 91.3 279.3 137 278.7C182.7 278 228.3 276 274 276.2C319.7 276.3 365.3 278.7 411.2 280.3C457 282 503 283 548.8 283.7C594.7 284.3 640.3 284.7 686 282.7C731.7 280.7 777.3 276.3 823 273.8C868.7 271.3 914.3 270.7 937.2 270.3L960 270L960 301L937.2 301C914.3 301 868.7 301 823 301C777.3 301 731.7 301 686 301C640.3 301 594.7 301 548.8 301C503 301 457 301 411.2 301C365.3 301 319.7 301 274 301C228.3 301 182.7 301 137 301C91.3 301 45.7 301 22.8 301L0 301Z" fill="#dddddd"></path></svg>