<svg id="visual" viewBox="0 0 960 300" width="960" height="300" xmlns="http://www.w3.org/2000/svg" xmlns:xlink="http://www.w3.org/1999/xlink" version="1.1"><path d="M0 195L22.8 193.7C45.7 192.3 91.3 189.7 137 193.5C182.7 197.3 228.3 207.7 274 208.2C319.7 208.7 365.3 199.3 411.2 197.2C457 195 503 200 548.8 203.7C594.7 207.3 640.3 209.7 686 213.2C731.7 216.7 777.3 221.3 823 219.2C868.7 217 914.3 208 937.2 203.5L960 199L960 301L937.2 301C914.3 301 868.7 301 823 301C777.3 301 731.7 301 686 301C640.3 301 594.7 301 548.8 301C503 301 457 301 411.2 301C365.3 301 319.7 301 274 301C228.3 301 182.7 301 137 301C91.3 301 45.7 301 22.8 301L0 301Z" fill="#30475e"></path><path d="M0 225L22.8 222.3C45.7 219.7 91.3 214.3 137 211C182.7 207.7 228.3 206.3 274 211.3C319.7 216.3 365.3 227.7 411.2 228.8C457 230 503 221 548.8 215.5C594.7 210 640.3 208 686 211.7C731.7 215.3 777.3 224.7 823 229.2C868.7 233.7 914.3 233.3 937.2 233.2L960 233L960 301L937.2 301C914.3 301 868.7 301 823 301C777.3 301 731.7 301 686 301C640.3 301 594.7 301 548.8 301C503 301 457 301 411.2 301C365.3 301 319.7 301 274 301C228.3 301 182.7 301 137 301C91.3 301 45.7 301 22.8 301L0 301Z" fill="#59697c"></path><path d="M0 243L22.8 241.3C45.7 239.7 91.3 236.3 137 237.7C182.7 239 228.3 245 274 245.5C319.7 246 365.3 241 411.2 241.3C457 241.7 503 247.3 548.8 250.8C594.7 254.3 640.3 255.7 686 252.5C731.7 249.3 777.3 241.7 823 242.3C868.7 243 914.3 252 937.2 256.5L960 261L960 301L937.2 301C914.3 301 868.7 301 823 301C777.3 301 731.7 301 686 301C640.3 301 594.7 301 548.8 301C503 301 457 301 411.2 301C365.3 301 319.7 301 274 301C228.3 301 182.7 301 137 301C91.3 301 45.7 301 22.8 301L0 301Z" fill="#828d9a"></path><path d="M0 255L22.8 257.8C45.7 260.7 91.3 266.3 137 270C182.7 273.7 228.3 275.3 274 276.3C319.7 277.3 365.3 277.7 411.2 277.8C457 278 503 278 548.8 277.7C594.7 277.3 640.3 276.7 686 276C731.7 275.3 777.3 274.7 823 274.5C868.7 274.3 914.3 274.7 937.2 274.8L960 275L960 301L937.2 301C914.3 301 868.7 301 823 301C777.3 301 731.7 301 686 301C640.3 301 594.7 301 548.8 301C503 301 457 301 411.2 301C365.3 301 319.7 301 274 301C228.3 301 182.7 301 137 301C91.3 301 45.7 301 22.8 301L0 301Z" fill="#adb3ba"></path></svg>