<svg id="visual" viewBox="0 0 900 600" width="900" height="600" xmlns="http://www.w3.org/2000/svg" xmlns:xlink="http://www.w3.org/1999/xlink" version="1.1"><rect x="0" y="0" width="900" height="600" fill="#dddddd"></rect><path d="M0 448L25 441.2C50 434.3 100 420.7 150 418C200 415.3 250 423.7 300 431.8C350 440 400 448 450 453.2C500 458.3 550 460.7 600 461.2C650 461.7 700 460.3 750 450C800 439.7 850 420.3 875 410.7L900 401L900 601L875 601C850 601 800 601 750 601C700 601 650 601 600 601C550 601 500 601 450 601C400 601 350 601 300 601C250 601 200 601 150 601C100 601 50 601 25 601L0 601Z" fill="#30475e"></path><path d="M0 477L25 479.8C50 482.7 100 488.3 150 484.2C200 480 250 466 300 460.3C350 454.7 400 457.3 450 461.8C500 466.3 550 472.7 600 475.8C650 479 700 479 750 471.7C800 464.3 850 449.7 875 442.3L900 435L900 601L875 601C850 601 800 601 750 601C700 601 650 601 600 601C550 601 500 601 450 601C400 601 350 601 300 601C250 601 200 601 150 601C100 601 50 601 25 601L0 601Z" fill="#5a697c"></path><path d="M0 483L25 481.8C50 480.7 100 478.3 150 481.5C200 484.7 250 493.3 300 496.3C350 499.3 400 496.7 450 499C500 501.3 550 508.7 600 508.8C650 509 700 502 750 499C800 496 850 497 875 497.5L900 498L900 601L875 601C850 601 800 601 750 601C700 601 650 601 600 601C550 601 500 601 450 601C400 601 350 601 300 601C250 601 200 601 150 601C100 601 50 601 25 601L0 601Z" fill="#848e9b"></path><path d="M0 549L25 543.3C50 537.7 100 526.3 150 518.7C200 511 250 507 300 512.7C350 518.3 400 533.7 450 541.5C500 549.3 550 549.7 600 543C650 536.3 700 522.7 750 522.7C800 522.7 850 536.3 875 543.2L900 550L900 601L875 601C850 601 800 601 750 601C700 601 650 601 600 601C550 601 500 601 450 601C400 601 350 601 300 601C250 601 200 601 150 601C100 601 50 601 25 601L0 601Z" fill="#b0b5bb"></path><path d="M0 565L25 563.8C50 562.7 100 560.3 150 557.5C200 554.7 250 551.3 300 553.8C350 556.3 400 564.7 450 566.3C500 568 550 563 600 557.8C650 552.7 700 547.3 750 544.3C800 541.3 850 540.7 875 540.3L900 540L900 601L875 601C850 601 800 601 750 601C700 601 650 601 600 601C550 601 500 601 450 601C400 601 350 601 300 601C250 601 200 601 150 601C100 601 50 601 25 601L0 601Z" fill="#dddddd"></path></svg>